# Blender v2.78 (sub 0) OBJ File: 'FosterBlockFromPlans.blend'
# www.blender.org
mtllib cnc_main.mtl
o cnc_main_I-WALL.006
v -3.240052 0.000001 -15.638058
v -6.037009 0.000001 -17.754627
v -7.297968 6.972709 -14.150759
v -5.810238 3.583791 -16.116734
v -7.297968 3.583791 -14.150759
v -5.810238 6.972709 -16.116734
v -4.405469 3.278787 -16.519924
v -5.110967 6.826561 -15.587605
v -5.110967 3.583791 -15.587605
v -4.405468 6.826561 -16.519924
v -4.405469 3.583791 -16.519924
v -6.037034 3.583791 -17.754602
v -6.037034 7.167581 -17.754602
v -3.240051 3.278787 -15.638058
v -4.405469 0.000001 -16.519924
v -3.240052 0.000001 -15.638058
v -6.037009 0.000001 -17.754627
v -7.297968 6.972709 -14.150759
v -5.810238 3.583791 -16.116734
v -7.297968 3.583791 -14.150759
v -5.810238 6.972709 -16.116734
v -4.405469 3.278787 -16.519924
v -5.110967 6.826561 -15.587605
v -5.110967 3.583791 -15.587605
v -4.405468 6.826561 -16.519924
v -4.405469 3.583791 -16.519924
v -6.037034 3.583791 -17.754602
v -6.037034 7.167581 -17.754602
v -3.240051 3.278787 -15.638058
v -4.405469 0.000001 -16.519924
vt 0.4211 0.1279
vt 0.4211 0.4818
vt 0.2633 0.4818
vt 0.2633 0.1279
vt 0.7504 0.5148
vt 0.7504 0.8806
vt 0.4842 0.8806
vt 0.4842 0.5148
vt 0.3896 0.5148
vt 0.3896 0.8648
vt 0.2633 0.8648
vt 0.2633 0.5148
vt 0.0424 0.9017
vt 0.0424 0.5148
vt 0.0424 0.1279
vt 0.4211 0.1279
vt 0.2633 0.1279
vt 0.2633 0.4818
vt 0.4211 0.4818
vt 0.7504 0.5148
vt 0.4842 0.5148
vt 0.4842 0.8806
vt 0.7504 0.8806
vt 0.3896 0.5148
vt 0.3896 0.8648
vt 0.2633 0.8648
vt 0.2633 0.5148
vt 0.0424 0.5148
vt 0.0424 0.9017
vt 0.0424 0.1279
vn -0.6034 0.0000 0.7974
vn -0.7974 0.0000 -0.6034
vn 0.6034 -0.0000 -0.7974
vn 0.7974 -0.0000 0.6034
usemtl ACI_2
s off
f 1/1/1 14/2/1 7/3/1 15/4/1
f 5/5/2 3/6/2 6/7/2 4/8/2
f 9/9/3 4/8/3 6/7/3 8/10/3
f 10/11/2 11/12/2 9/9/2 8/10/2
f 11/12/1 10/11/1 13/13/1 12/14/1
f 11/12/1 12/14/1 2/15/1 15/4/1 7/3/1
f 16/16/3 30/17/3 22/18/3 29/19/3
f 20/20/4 19/21/4 21/22/4 18/23/4
f 24/24/1 23/25/1 21/22/1 19/21/1
f 25/26/4 23/25/4 24/24/4 26/27/4
f 26/27/3 27/28/3 28/29/3 25/26/3
f 26/27/3 22/18/3 30/17/3 17/30/3 27/28/3
