# Blender v2.78 (sub 0) OBJ File: 'FosterBlockFromPlans.blend'
# www.blender.org
mtllib floor_1_backWall.mtl
o floor_1_backWall_A-WALL_1.004
v -0.152502 5.108807 -20.476324
v -0.000000 3.050034 -15.161209
v -0.000000 1.525017 -15.923718
v -0.000000 5.108807 -20.425137
v -0.152502 3.583790 -20.476324
v -0.152502 -0.305003 -20.476324
v -0.000001 -0.305003 -20.425137
v -0.152502 1.525017 -15.923718
v -0.152502 3.050034 -15.923718
v -0.000000 3.050034 -15.923718
v -0.000000 1.525017 -15.161209
v -0.152502 1.525017 -15.161209
v -0.152502 3.050034 -15.161209
v -0.000000 3.583790 -20.425137
v -0.152503 -0.305003 -13.026186
v -0.152503 -2.160441 -15.999969
v -0.000001 -2.160441 -15.999969
v -0.000001 -0.305003 -15.999969
v -0.152503 -0.305003 -15.999969
v -0.152503 -2.160441 -13.026186
v -0.000001 -2.160441 -13.026186
v -0.000001 -0.305003 -13.026186
v -0.152502 2.878028 -13.026186
v -0.000000 3.339953 -13.026186
v -0.152502 5.108807 -13.026187
v 0.000000 5.108807 -13.026186
v -0.055903 5.108807 -13.026186
v -0.000000 2.878028 -13.026186
vt 0.7792 0.4112
vt 0.8219 0.4708
vt 0.8692 0.5257
vt 0.8692 0.4330
vt 0.8114 0.5162
vt 0.8114 0.4699
vt 0.7813 0.5115
vt 0.8219 0.5158
vt 0.8714 0.5609
vt 0.8697 0.4342
vt 0.8209 0.4711
vt 0.8105 0.4703
vt 0.7788 0.4124
vt 0.8209 0.5156
vt 0.8697 0.5252
vt 0.8105 0.5160
vt 0.8701 0.5604
vt 0.7771 0.5589
vt 0.7763 0.5586
vt 0.8229 0.4186
vt 0.8229 0.3698
vt 0.7792 0.3588
vt 0.8219 0.3713
vt 0.8219 0.4196
vt 0.7788 0.3607
vt 0.7829 0.5215
vt 0.7771 0.5583
vt 0.7808 0.5113
vt 0.0000 0.0000
vt 0.0000 0.0000
vt 0.0000 0.0000
vt 0.0000 0.0000
vn -1.0000 -0.0000 -0.0000
vn 1.0000 -0.0000 -0.0000
vn 0.0000 1.0000 -0.0000
vn 0.3182 -0.0000 -0.9480
vn 0.0000 0.0000 1.0000
vn 0.0000 0.0000 -1.0000
vn 0.0000 -1.0000 -0.0000
usemtl ACI_113
s off
f 15/1/1 8/2/1 5/3/1 6/4/1
f 15/1/1 13/5/1 12/6/1
f 8/2/1 15/1/1 12/6/1
f 13/5/1 15/1/1 23/7/1
f 5/3/1 9/8/1 13/5/1 1/9/1
f 5/3/1 8/2/1 9/8/1
f 7/10/2 3/11/2 11/12/2 22/13/2
f 10/14/2 3/11/2 7/10/2 14/15/2
f 11/12/2 2/16/2 22/13/2
f 10/14/2 14/15/2 4/17/2
f 1/9/3 25/18/3 27/19/3 4/17/3
f 14/15/4 7/10/4 6/4/4 5/3/4
f 8/2/5 3/11/5 10/14/5 9/8/5
f 11/12/3 3/11/3 8/2/3 12/6/3
f 2/16/6 11/12/6 12/6/6 13/5/6
f 13/5/7 9/8/7 10/14/7 2/16/7
f 15/1/1 19/20/1 16/21/1 20/22/1
f 17/23/2 18/24/2 22/13/2 21/25/2
f 21/25/7 20/22/7 16/21/7 17/23/7
f 16/21/6 19/20/6 18/24/6 17/23/6
f 24/26/2 2/16/2 10/14/2 4/17/2 26/27/2
f 25/18/1 1/9/1 13/5/1 23/7/1
f 28/28/2 2/16/2 24/26/2
f 26/27/3 4/17/3 27/19/3
f 22/13/2 2/16/2 28/28/2
f 1/29/4 4/30/4 14/31/4 5/32/4
