# Blender v2.78 (sub 0) OBJ File: 'FosterBlockFromPlans.blend'
# www.blender.org
mtllib floor_1_frontWall.mtl
o floor_1_frontWall_A-WALL_1.002
v -19.472586 -0.305000 0.000001
v -19.472586 0.000003 0.000001
v -17.492603 3.050037 -2.616496
v -15.146136 0.000003 -5.717237
v -15.146137 -0.305001 -5.717237
v -17.614197 3.050037 -2.708505
v -15.267758 -0.305001 -5.809271
v -15.267757 3.583792 -5.809271
v -19.663847 3.583793 0.000001
v -19.663847 -0.305000 0.000001
v -15.146135 3.050036 -5.717237
v -15.267757 3.050036 -5.809271
v -16.740135 3.050036 -3.863554
v -16.740135 0.000003 -3.863554
v -16.618540 0.000003 -3.771544
v -16.618540 3.050036 -3.771544
v -15.267757 0.000003 -5.809271
v -17.614199 0.762511 -2.708505
v -18.596893 0.762512 -1.157207
v -18.596893 3.050037 -1.157207
v -18.718513 0.762512 -1.249217
v -18.718513 3.050037 -1.249217
v -9.102622 3.050035 -11.471151
v -9.102622 0.000002 -11.471151
v -10.696621 0.000002 -9.617467
v -10.621031 0.000002 -9.464636
v -10.621031 3.532778 -9.464636
v -9.132208 3.532778 -11.684780
v -10.742625 0.000002 -9.556644
v -9.010588 0.000002 -11.592746
v -9.010588 3.532778 -11.592746
v -10.696621 3.050035 -9.617467
v -10.575026 0.000002 -9.525433
v -10.575026 3.050035 -9.525433
v -9.132208 0.000002 -11.684780
v -10.084784 3.050035 -12.405630
v -10.176819 3.050035 -12.284035
v -10.176820 0.000002 -12.284035
v -9.325580 0.000002 -11.639843
v -10.084785 0.000002 -12.405630
v -10.298414 0.000002 -12.376045
v -9.325580 3.050035 -11.639843
v -9.132208 3.050035 -11.684780
v -10.298413 3.050035 -12.376045
v -9.224242 0.000002 -11.563160
v -9.224242 3.050035 -11.563160
v -9.233545 3.050035 -11.761463
v -9.233545 0.000002 -11.761463
v -8.612406 3.050035 -14.351350
v -4.693341 0.000001 -19.530254
v -5.161317 3.050035 -18.911835
v -3.888133 -0.305003 -20.594311
v -3.842102 0.000001 -20.655109
v -4.693340 2.033357 -19.530254
v -3.963724 1.525017 -20.747143
v -4.009727 -0.305003 -20.686344
v -8.734001 0.000001 -14.443358
v -3.963723 3.278787 -20.747143
v -3.963723 3.583790 -20.747143
v -5.282938 0.762509 -19.003845
v -10.206405 -0.305002 -12.497665
v -10.206404 3.050035 -12.497665
v -10.252409 3.583791 -12.436843
v -4.124764 0.000001 -20.534325
v -4.003144 0.000001 -20.442291
v -4.003144 2.033357 -20.442291
v -4.124764 2.033357 -20.534325
v -4.814935 2.033357 -19.622265
v -4.814936 0.000001 -19.622265
v -8.612407 0.000001 -14.351350
v -3.969162 0.000001 -20.655643
v -3.888133 0.000001 -20.594311
v -3.963724 0.000001 -20.747143
v -4.009727 0.000001 -20.686344
v -5.161318 0.762509 -18.911835
v -5.282937 3.050035 -19.003845
v -10.130815 3.583791 -12.344833
v -10.252409 3.050035 -12.436843
v -8.734000 3.050035 -14.443358
v -10.206405 0.000002 -12.497665
v -10.084785 -0.305002 -12.405630
v -6.265608 3.050035 -17.452545
v -3.923157 3.583790 -20.716438
v -3.923158 0.000001 -20.716438
v -3.934137 3.583790 -20.533512
v -1.409954 3.583790 -18.814667
v -3.842101 3.583790 -20.655109
v -3.934138 0.000001 -20.533512
v -1.409954 0.000000 -18.814667
v -0.152502 3.583790 -20.223602
v -1.501963 0.000000 -18.693047
v 0.000000 0.000000 -20.425137
v -0.121593 0.000000 -20.517143
v -0.121593 3.583790 -20.517143
v -1.501963 3.583790 -18.693047
v -1.380369 3.583790 -18.601036
v -1.380369 0.000000 -18.601036
v 0.000000 3.583790 -20.425137
v -5.975677 3.583791 -17.835655
v -6.037032 3.583791 -17.754601
v -19.357191 3.583793 -0.152500
v -0.152502 3.583790 -20.476322
v -19.472584 3.583793 0.000001
v -19.357191 0.000003 -0.152500
v -10.742625 3.532778 -9.556644
v -10.972699 3.050035 -9.252632
v -10.851079 0.000002 -9.160598
v -10.972699 0.000002 -9.252632
v -12.323484 3.050036 -7.214905
v -10.851079 3.050035 -9.160598
v -12.323483 3.532778 -7.214905
v -11.958649 0.000002 -6.938827
v -12.445079 0.000002 -7.306914
v -11.958648 3.532778 -6.938827
v -12.537111 3.532778 -7.185320
v -12.445078 3.050036 -7.306914
v -12.537113 0.000002 -7.185320
v -12.445078 3.532778 -7.306914
v -12.862476 2.033358 -5.997179
v -12.862476 0.000002 -5.997179
v -13.828726 0.000002 -4.720308
v -13.828726 3.532778 -4.720308
v -13.707130 3.532778 -4.628298
v -13.477057 0.000002 -4.932311
v -12.924925 0.000002 -5.661955
v -12.740880 2.033358 -5.905170
v -12.802211 0.000002 -5.824090
v -12.050683 3.532778 -6.817206
v -12.188723 2.033358 -6.634814
v -12.172304 0.000002 -6.909241
v -12.188723 0.000002 -6.634814
v -13.046518 0.000002 -5.753964
v -12.863567 0.000002 -5.743036
v -12.740880 0.000002 -5.905170
v -12.172303 3.532778 -6.909241
v -12.863566 3.532778 -5.743036
v -12.802210 3.532778 -5.824090
v -12.050684 0.000002 -6.817206
v -13.707131 0.000002 -4.628298
v -12.924925 2.033358 -5.661955
v -13.046518 2.033358 -5.753964
v -13.598679 2.033358 -5.024345
v -13.598679 0.000002 -5.024345
v -13.477057 2.033358 -4.932311
v -12.310318 0.000002 -6.726823
v -12.310317 2.033358 -6.726823
v -13.736715 -0.305001 -4.841928
v -15.175724 -0.305001 -5.930891
v -15.054127 3.050036 -5.838857
v -13.828726 -0.305001 -4.720308
v -13.828726 3.050036 -4.720308
v -15.175723 3.050036 -5.930891
v -14.294897 3.050036 -5.073069
v -14.202862 3.050036 -5.194690
v -13.736715 3.050036 -4.841928
v -14.294898 0.000002 -5.073069
v -14.202862 0.000002 -5.194690
v -15.054128 0.000003 -5.838857
v -10.130815 3.050035 -12.344833
v -15.146135 3.583792 -5.717237
v -6.387228 3.050035 -17.544556
v -5.835072 0.762509 -18.274200
v -5.713475 0.762509 -18.182190
v -6.387229 0.762510 -17.544556
v -6.265609 0.762510 -17.452545
v -5.713474 3.050035 -18.182190
v -5.835071 3.050035 -18.274200
v -18.044737 3.050037 -1.886852
v -18.044737 0.762511 -1.886852
v -18.166357 0.762511 -1.978861
v -18.166357 3.050037 -1.978861
v -17.492603 0.762511 -2.616496
vt 0.3871 0.5229
vt 0.3871 0.4464
vt 0.3871 0.4400
vt 0.3860 0.4584
vt 0.3843 0.4519
vt 0.3870 0.5232
vt 0.3860 0.5127
vt 0.3843 0.5147
vt 0.3779 0.5441
vt 0.3779 0.3989
vt 0.3825 0.4222
vt 0.3779 0.3876
vt 0.3825 0.5168
vt 0.3779 0.5222
vt 0.3748 0.3992
vt 0.3748 0.3879
vt 0.3801 0.4223
vt 0.3855 0.4405
vt 0.3801 0.5168
vt 0.3748 0.5440
vt 0.3748 0.5221
vt 0.3822 0.5147
vt 0.3822 0.4520
vt 0.3842 0.4585
vt 0.3842 0.5127
vt 0.3855 0.5227
vt 0.4331 0.6606
vt 0.4331 0.2086
vt 0.4346 0.2026
vt 0.4346 0.5890
vt 0.8008 0.6933
vt 0.8162 0.7774
vt 0.8008 0.0943
vt 0.8162 0.1091
vt 0.8298 0.7089
vt 0.8417 0.6811
vt 0.8417 0.1019
vt 0.8298 0.0856
vt 0.8417 0.7888
vt 0.4207 0.6626
vt 0.4217 0.5904
vt 0.4217 0.2001
vt 0.4207 0.2063
vt 0.8656 0.6872
vt 0.8656 0.0980
vt 0.0457 0.6222
vt 0.0337 0.6330
vt 0.0337 0.1419
vt 0.0457 0.1540
vt 0.0503 0.6428
vt 0.0615 0.6296
vt 0.0615 0.1455
vt 0.0503 0.1321
vt 0.8583 0.7185
vt 0.8583 0.0806
vt 0.0534 0.6259
vt 0.9407 0.2950
vt 1.0337 0.1419
vt 1.0337 0.1283
vt 0.9172 0.5236
vt 0.9407 0.5503
vt 0.9172 0.4237
vt 0.9118 0.4197
vt 0.9131 0.5189
vt 0.9159 0.5441
vt 0.9100 0.4207
vt 1.0417 0.7376
vt 1.0417 0.6379
vt 0.9162 0.5447
vt 0.9102 0.4278
vt 0.9102 0.4859
vt 0.9100 0.4290
vt 0.9099 0.4295
vt 0.9118 0.4843
vt 0.9131 0.4387
vt 0.9101 0.5308
vt 0.9099 0.5303
vt 0.9124 0.4279
vt 0.9121 0.4719
vt 0.9122 0.4291
vt 0.9122 0.4208
vt 0.9142 0.4198
vt 0.9121 0.4295
vt 0.9476 0.2970
vt 0.9121 0.5217
vt 0.9157 0.5188
vt 0.9121 0.5303
vt 0.9124 0.4859
vt 0.9142 0.4843
vt 0.9157 0.4388
vt 0.9205 0.4239
vt 1.0457 0.1540
vt 1.0457 0.1395
vt 0.9205 0.5236
vt 0.9476 0.5496
vt 1.0534 0.7215
vt 0.0534 0.7215
vt 1.0457 0.6222
vt 0.9114 0.4290
vt 0.9113 0.4295
vt 0.0417 0.6379
vt 0.0417 0.7376
vt 1.0534 0.6259
vt 0.0457 0.1395
vt 0.0337 0.1283
vt 0.9113 0.5303
vt 0.8663 0.4296
vt 0.8663 0.5303
vt 0.9101 0.4285
vt 0.8667 0.5299
vt 0.8667 0.4305
vt 0.8692 0.5257
vt 0.8641 0.5302
vt 0.8641 0.4297
vt 0.8697 0.5252
vt 0.8697 0.4412
vt 0.8714 0.5253
vt 0.8715 0.5252
vt 0.8715 0.4411
vt 0.3870 0.4457
vt 0.4167 0.2345
vt 0.4167 0.5731
vt 0.4065 0.5709
vt 0.4065 0.5359
vt 0.4272 0.5724
vt 0.4116 0.5707
vt 0.4116 0.5358
vt 0.4272 0.2362
vt 0.4210 0.5681
vt 0.4062 0.5687
vt 0.4062 0.3481
vt 0.4210 0.3494
vt 0.4259 0.3500
vt 0.4259 0.5678
vt 0.4268 0.5698
vt 0.4065 0.3439
vt 0.4268 0.3460
vt 0.4199 0.3551
vt 0.4199 0.4702
vt 0.4165 0.4746
vt 0.4155 0.4758
vt 0.4155 0.3799
vt 0.4165 0.3745
vt 0.4124 0.5222
vt 0.4132 0.4789
vt 0.4132 0.3938
vt 0.4124 0.3987
vt 0.4124 0.5442
vt 0.4155 0.5441
vt 0.4155 0.3989
vt 0.4165 0.3940
vt 0.4165 0.4789
vt 0.4193 0.4759
vt 0.4193 0.3802
vt 0.4197 0.3785
vt 0.4197 0.5537
vt 0.4204 0.4747
vt 0.4200 0.3767
vt 0.4204 0.3749
vt 0.4246 0.4703
vt 0.4246 0.3557
vt 0.4200 0.5545
vt 0.4002 0.5228
vt 0.4127 0.5227
vt 0.4127 0.3853
vt 0.4002 0.3963
vt 0.3743 0.3858
vt 0.3775 0.5226
vt 0.3775 0.3970
vt 0.3743 0.5225
vt 0.4002 0.3983
vt 0.4124 0.3874
vt 0.4002 0.5223
vt 0.9179 0.5209
vt 0.9179 0.4321
vt 0.9149 0.4320
vt 0.9149 0.5210
vt 0.3833 0.5136
vt 0.3833 0.4555
vt 0.3852 0.4554
vt 0.3852 0.5137
vn 0.7974 -0.0000 0.6034
vn 0.7974 0.0001 0.6034
vn -0.7974 0.0000 -0.6034
vn -0.0000 -1.0000 0.0000
vn 0.6034 0.0000 -0.7974
vn 0.0000 0.0000 1.0000
vn 0.0000 1.0000 0.0000
vn 0.6033 0.0000 -0.7975
vn -0.6034 0.0000 0.7974
vn 0.7974 0.0000 0.6035
vn -0.7976 0.0000 -0.6032
vn 0.6035 0.0000 -0.7974
vn -0.6033 0.0000 0.7975
vn -0.7975 0.0000 -0.6033
vn -0.7975 0.0000 -0.6034
vn 0.7973 0.0001 0.6035
vn 0.7974 -0.0001 0.6034
vn 0.7975 0.0000 0.6033
vn 0.7973 -0.0000 0.6036
vn -0.7974 0.0000 -0.6035
vn -0.7974 0.0001 -0.6034
vn 0.6035 0.0000 -0.7973
vn 0.6034 0.0000 -0.7975
vn -0.7973 0.0000 -0.6036
vn -0.6035 0.0000 0.7974
usemtl ACI_113
s off
f 103/1/1 2/2/1 1/3/1 19/4/1
f 172/5/1 19/4/1 1/3/1
f 101/6/1 103/1/1 19/4/1
f 101/6/1 20/7/1 3/8/1
f 101/6/1 19/4/1 20/7/1
f 160/9/1 101/6/1 3/8/1
f 4/10/1 15/11/1 5/12/1
f 1/3/2 5/12/2 15/11/2
f 15/11/1 16/13/1 3/8/1 172/5/1
f 16/13/1 11/14/1 160/9/1
f 3/8/1 16/13/1 160/9/1
f 1/3/1 15/11/1 172/5/1
f 17/15/3 7/16/3 14/17/3
f 10/18/3 14/17/3 7/16/3
f 13/19/3 8/20/3 12/21/3
f 6/22/3 8/20/3 13/19/3
f 6/22/3 13/19/3 14/17/3 18/23/3
f 21/24/3 18/23/3 10/18/3
f 14/17/3 10/18/3 18/23/3
f 22/25/3 21/24/3 10/18/3 9/26/3
f 9/26/3 6/22/3 22/25/3
f 8/20/3 6/22/3 9/26/3
f 10/18/4 7/16/4 5/12/4 1/3/4
f 7/16/5 17/15/5 4/10/5 5/12/5
f 8/20/5 160/9/5 11/14/5 12/21/5
f 1/3/6 2/2/6 9/26/6 10/18/6
f 9/26/6 2/2/6 103/1/6
f 13/19/4 12/21/4 11/14/4 16/13/4
f 13/19/5 16/13/5 15/11/5 14/17/5
f 14/17/7 15/11/7 4/10/7 17/15/7
f 21/24/7 19/4/7 172/5/7 18/23/7
f 19/4/8 21/24/8 22/25/8 20/7/8
f 3/8/4 20/7/4 22/25/4 6/22/4
f 6/22/9 18/23/9 172/5/9 3/8/9
f 27/27/1 26/28/1 33/29/1 34/30/1
f 23/31/1 27/27/1 34/30/1
f 31/32/10 23/31/10 24/33/10 30/34/10
f 27/27/1 23/31/1 31/32/1
f 46/35/3 43/36/3 35/37/3 45/38/3
f 43/36/3 46/35/3 28/39/3
f 105/40/11 32/41/11 25/42/11 29/43/11
f 105/40/3 46/35/3 32/41/3
f 28/39/3 46/35/3 105/40/3
f 45/38/4 35/37/4 30/34/4 24/33/4
f 25/42/4 33/29/4 26/28/4 29/43/4
f 27/27/7 31/32/7 28/39/7 105/40/7
f 29/43/9 26/28/9 27/27/9 105/40/9
f 35/37/5 43/36/5 31/32/5 30/34/5
f 31/32/5 43/36/5 28/39/5
f 32/41/12 34/30/12 33/29/12 25/42/12
f 23/31/4 34/30/4 32/41/4 46/35/4
f 24/33/13 23/31/13 46/35/13 45/38/13
f 47/44/5 43/36/5 35/37/5 48/45/5
f 62/46/5 36/47/5 40/48/5 80/49/5
f 37/50/9 44/51/9 41/52/9 38/53/9
f 46/35/9 42/54/9 39/55/9 45/38/9
f 45/38/4 39/55/4 48/45/4 35/37/4
f 38/53/4 41/52/4 80/49/4 40/48/4
f 42/54/7 46/35/7 43/36/7 47/44/7
f 78/56/7 36/47/7 62/46/7
f 36/47/7 78/56/7 44/51/7 37/50/7
f 78/56/14 62/46/14 80/49/14
f 80/49/15 41/52/15 44/51/15 78/56/15
f 47/44/3 48/45/3 39/55/3 42/54/3
f 40/48/10 36/47/10 37/50/10 38/53/10
f 70/57/1 40/58/1 81/59/1
f 82/60/1 49/61/1 70/57/1 165/62/1
f 50/63/1 165/62/1 70/57/1
f 51/64/1 99/65/1 82/60/1
f 70/57/1 81/59/1 52/66/1
f 49/61/1 77/67/1 159/68/1
f 49/61/1 82/60/1 100/69/1
f 99/65/16 100/69/16 82/60/16
f 77/67/1 49/61/1 100/69/1
f 52/66/17 65/70/17 50/63/17
f 66/71/18 65/70/18 52/66/18 72/72/18
f 52/66/1 50/63/1 70/57/1
f 53/73/19 66/71/19 72/72/19
f 50/63/1 54/74/1 51/64/1 75/75/1
f 85/76/1 51/64/1 54/74/1
f 85/76/10 66/71/10 87/77/10
f 53/73/1 87/77/1 66/71/1
f 54/74/1 66/71/1 85/76/1
f 99/65/1 51/64/1 85/76/1
f 165/62/1 50/63/1 75/75/1
f 64/78/3 55/79/3 74/80/3
f 56/81/3 64/78/3 74/80/3
f 56/81/3 69/82/3 64/78/3
f 55/79/15 73/83/15 74/80/15
f 69/82/3 56/81/3 57/84/3
f 58/85/3 76/86/3 59/87/3
f 58/85/3 55/79/3 64/78/3 67/88/3
f 58/85/3 67/88/3 68/89/3
f 68/89/3 76/86/3 58/85/3
f 76/86/20 68/89/20 69/82/20 60/90/20
f 164/91/3 60/90/3 69/82/3
f 80/92/3 57/84/3 61/93/3
f 56/81/21 61/93/21 57/84/21
f 161/94/3 164/91/3 57/84/3 79/95/3
f 164/91/3 69/82/3 57/84/3
f 63/96/3 59/87/3 161/94/3
f 79/95/3 63/96/3 161/94/3
f 63/97/14 62/46/14 78/56/14
f 79/95/3 62/98/3 63/96/3
f 76/86/3 161/94/3 59/87/3
f 61/93/4 56/81/4 52/66/4 81/59/4
f 64/78/7 69/82/7 50/63/7 65/70/7
f 66/71/9 67/88/9 64/78/9 65/70/9
f 66/71/4 54/74/4 68/89/4 67/88/4
f 69/82/5 68/89/5 54/74/5 50/63/5
f 70/57/9 49/61/9 79/95/9 57/84/9
f 70/57/7 57/84/7 80/92/7 40/58/7
f 71/99/22 72/72/22 52/66/22
f 74/80/12 71/99/12 56/81/12
f 52/66/12 56/81/12 71/99/12
f 84/100/4 53/73/4 72/72/4 71/99/4
f 71/99/4 74/80/4 73/83/4 84/100/4
f 51/64/13 76/86/13 60/90/13 75/75/13
f 75/75/7 60/90/7 164/91/7 165/62/7
f 51/64/4 82/60/4 161/94/4 76/86/4
f 63/97/9 78/56/9 159/101/9 77/102/9
f 49/61/4 159/68/4 78/103/4 62/98/4
f 62/98/4 79/95/4 49/61/4
f 80/49/9 61/104/9 81/105/9 40/48/9
f 161/94/8 82/60/8 165/62/8 164/91/8
f 58/85/5 87/77/5 53/73/5 55/79/5
f 87/77/23 58/85/23 83/106/23
f 84/100/23 55/79/23 53/73/23
f 84/100/12 73/83/12 55/79/12
f 58/85/22 59/87/22 83/106/22
f 91/107/9 95/108/9 85/76/9 88/109/9
f 53/73/5 87/77/5 86/110/5 89/111/5
f 72/72/4 91/107/4 88/109/4
f 91/107/4 72/72/4 53/73/4 89/111/4
f 85/76/7 95/108/7 86/110/7 87/77/7
f 95/108/18 91/107/18 89/111/18 86/110/18
f 85/76/3 72/72/3 88/109/3
f 72/72/24 87/77/24 53/73/24
f 72/72/20 85/76/20 87/77/20
f 90/112/1 96/113/1 97/114/1
f 98/115/1 90/112/1 92/116/1
f 97/114/1 92/116/1 90/112/1
f 102/117/24 94/118/24 93/119/24
f 89/111/3 102/117/3 93/119/3
f 102/117/3 89/111/3 86/110/3
f 91/107/4 89/111/4 92/116/4 97/114/4
f 96/113/9 95/108/9 91/107/9 97/114/9
f 98/115/5 92/116/5 93/119/5 94/118/5
f 104/120/3 2/2/3 103/1/3 101/6/3
f 108/121/20 106/122/20 105/40/20 29/43/20
f 118/123/3 106/122/3 116/124/3
f 105/40/3 106/122/3 118/123/3
f 110/125/1 111/126/1 109/127/1
f 27/27/1 111/126/1 110/125/1
f 107/128/1 26/28/1 27/27/1 110/125/1
f 107/128/4 108/121/4 29/43/4 26/28/4
f 105/40/7 118/123/7 111/126/7 27/27/7
f 116/124/9 109/127/9 111/126/9 118/123/9
f 110/125/4 109/127/4 116/124/4 106/122/4
f 107/128/9 110/125/9 106/122/9 108/121/9
f 135/129/25 115/130/25 117/131/25 130/132/25
f 138/133/9 128/134/9 135/129/9 130/132/9
f 116/124/5 111/126/5 114/135/5
f 113/136/5 116/124/5 114/135/5 112/137/5
f 111/126/5 116/124/5 118/123/5
f 117/131/4 113/136/4 112/137/4 130/132/4
f 138/133/4 130/132/4 112/137/4
f 111/126/7 135/129/7 128/134/7 114/135/7
f 118/123/7 115/130/7 135/129/7 111/126/7
f 113/136/20 117/131/20 115/130/20 116/124/20
f 118/123/20 116/124/20 115/130/20
f 128/134/1 138/133/1 112/137/1 114/135/1
f 135/129/15 130/132/15 145/138/15 146/139/15
f 119/140/3 135/129/3 146/139/3
f 141/141/3 135/129/3 119/140/3
f 132/142/3 141/141/3 119/140/3 120/143/3
f 151/144/15 142/145/15 143/146/15 121/147/15
f 151/144/20 141/141/20 142/145/20
f 141/141/3 151/144/3 122/148/3
f 135/129/3 141/141/3 122/148/3
f 123/149/10 139/150/10 124/151/10 144/152/10
f 140/153/1 125/154/1 133/155/1
f 136/156/1 123/149/1 144/152/1
f 144/152/1 140/153/1 136/156/1
f 140/153/1 126/157/1 136/156/1
f 127/158/19 140/153/19 133/155/19
f 126/157/18 127/158/18 134/159/18
f 128/134/10 129/160/10 131/161/10 138/133/10
f 129/160/1 137/162/1 126/157/1
f 126/157/19 137/162/19 136/156/19
f 137/162/1 129/160/1 128/134/1
f 127/158/1 126/157/1 140/153/1
f 124/151/4 139/150/4 121/147/4 143/146/4
f 138/133/4 131/161/4 145/138/4 130/132/4
f 127/158/4 133/155/4 132/142/4 120/143/4
f 125/154/4 132/142/4 133/155/4
f 120/143/4 134/159/4 127/158/4
f 123/149/7 136/156/7 135/129/7 122/148/7
f 128/134/7 135/129/7 136/156/7 137/162/7
f 121/147/9 139/150/9 123/149/9 151/144/9
f 122/148/9 151/144/9 123/149/9
f 140/153/9 141/141/9 132/142/9 125/154/9
f 140/153/4 144/152/4 142/145/4 141/141/4
f 143/146/5 142/145/5 144/152/5 124/151/5
f 126/157/5 134/159/5 120/143/5 119/140/5
f 119/140/4 146/139/4 129/160/4 126/157/4
f 145/138/9 131/161/9 129/160/9 146/139/9
f 154/163/5 155/164/5 147/165/5 157/166/5
f 148/167/5 157/166/5 147/165/5
f 149/168/12 158/169/12 148/167/12 152/170/12
f 157/166/5 148/167/5 158/169/5
f 11/14/9 12/21/9 7/16/9 4/10/9
f 156/171/9 4/10/9 7/16/9
f 156/171/9 150/172/9 121/147/9
f 121/147/9 151/144/9 153/173/9 156/171/9
f 7/16/9 150/172/9 156/171/9
f 7/16/4 148/167/4 147/165/4 150/172/4
f 12/21/3 152/170/3 148/167/3 7/16/3
f 11/14/7 149/168/7 152/170/7 12/21/7
f 153/173/7 151/144/7 155/164/7 154/163/7
f 150/172/18 147/165/18 155/164/18 121/147/18
f 121/147/18 155/164/18 151/144/18
f 154/163/3 157/166/3 156/171/3 153/173/3
f 4/10/18 158/169/18 149/168/18 11/14/18
f 156/171/7 157/166/7 158/169/7 4/10/7
f 44/51/3 63/97/3 78/56/3
f 8/20/3 44/51/3 12/21/3
f 63/97/3 44/51/3 8/20/3
f 159/101/1 77/102/1 160/9/1 11/14/1
f 78/56/4 159/101/4 11/14/4 44/51/4
f 12/21/4 44/51/4 11/14/4
f 161/94/3 167/174/3 162/175/3 164/91/3
f 165/62/1 163/176/1 166/177/1 82/60/1
f 163/176/4 165/62/4 164/91/4 162/175/4
f 167/174/7 161/94/7 82/60/7 166/177/7
f 162/175/5 167/174/5 166/177/5 163/176/5
f 171/178/3 6/22/3 18/23/3 170/179/3
f 169/180/1 172/5/1 3/8/1 168/181/1
f 169/180/4 170/179/4 18/23/4 172/5/4
f 168/181/13 171/178/13 170/179/13 169/180/13
f 6/22/7 171/178/7 168/181/7 3/8/7
