# Blender v2.78 (sub 0) OBJ File: 'FosterBlockFromPlans.blend'
# www.blender.org
mtllib floor_1_floor.mtl
o floor_1_floor_A-FLOR.001
v -1.601269 -0.305003 -13.051602
v -1.601269 -0.305003 -15.415380
v -0.152503 -0.305003 -12.848268
v -3.240077 -0.305003 -15.638032
v -3.934138 -0.305003 -20.533514
v -3.934138 0.000001 -20.533514
v -1.601269 0.000000 -15.415380
v -0.152503 0.000000 -20.223604
v -0.432089 0.000000 -15.415380
v -1.601269 0.000000 -13.051602
v -1.380370 0.000000 -18.601038
v -0.152503 -0.305003 -20.223604
v -1.380370 -0.305003 -18.601038
v -0.432089 -0.305003 -15.415380
v -0.432089 0.000000 -13.051602
v -0.432089 -0.305003 -13.051602
v -3.240077 0.000001 -15.638032
v -3.945575 0.000001 -14.705712
v -3.945575 -0.305003 -14.705712
v -6.037035 -0.305002 -17.754602
v -6.037035 0.000001 -17.754602
v -0.152502 0.000000 -0.152501
v -0.152502 -0.305003 -0.152501
v -12.445079 -0.305001 -7.306914
v -12.445079 0.000002 -7.306914
v -15.044801 0.000002 -5.640554
v -13.204206 -0.305001 -8.072828
v -15.044801 -0.305001 -5.640554
v -12.352967 -0.305001 -7.428662
v -12.352967 0.000002 -7.428662
v -13.204206 0.000002 -8.072828
v -15.146136 -0.305001 -5.717237
v -9.010590 -0.305002 -11.592747
v -12.169257 0.000002 -3.513203
v -19.357193 0.000003 -0.152500
v -9.010590 0.000001 -11.592747
v -12.323484 0.000002 -7.214905
v -12.323484 -0.305001 -7.214905
v -10.084785 0.000002 -12.405631
v -6.742533 0.000001 -16.822309
v -10.084785 -0.305002 -12.405631
v -19.357193 -0.305000 -0.152500
v -15.146136 0.000002 -5.717237
v -6.742533 -0.305002 -16.822309
v -0.152503 0.000000 -12.848268
v -12.169259 -0.305001 -3.513203
v -7.221336 -0.305002 -10.247367
v -14.638532 -0.305001 -0.152501
v -10.494591 0.000002 -5.792440
v -14.638532 0.000002 -0.152501
v -10.494592 -0.305002 -5.792440
v -7.221338 0.000001 -10.247368
v -1.286310 -0.305003 -10.247366
v -2.783575 -0.305003 -10.247365
v -1.286310 0.000000 -10.247369
v -0.152502 0.000000 -10.247367
v -0.152502 -0.305003 -10.247367
v -2.783575 0.000000 -10.247366
v -0.785953 -0.305003 -5.792438
v -0.152502 0.000000 -5.792438
v -4.101817 0.000001 -5.792441
v -0.785953 0.000000 -5.792439
v -4.101815 -0.305003 -5.792439
v -1.622466 -0.305003 -5.792438
v -0.152502 -0.305003 -5.792438
v -1.622466 0.000000 -5.792438
v -2.505800 -0.305003 -3.513201
v -6.315097 0.000001 -3.513201
v -6.315097 -0.305002 -3.513201
v -0.529960 -0.305003 -3.513201
v -0.529960 0.000000 -3.513201
v -0.152502 -0.305003 -3.513201
v -1.028417 0.000000 -3.513201
v -2.505801 0.000000 -3.513201
v -1.028417 -0.305003 -3.513201
v -0.152502 0.000000 -3.513201
v -3.945574 -0.305003 -0.152501
v -3.945575 0.000001 -2.221010
v -3.945575 0.000001 -1.213302
v -3.945576 0.000001 -3.513201
v -3.945576 -0.305003 -2.221010
v -3.945575 0.000001 -10.247367
v -3.945575 -0.305003 -5.792439
v -3.945575 0.000001 -5.569314
v -3.945575 -0.305003 -10.247366
v -3.945576 -0.305003 -3.513201
v -3.945574 0.000001 -0.152501
v -3.945575 -0.305003 -1.213302
v -3.945575 -0.305003 -5.569316
v -3.945575 0.000001 -5.792441
v -7.221338 -0.305002 -2.129428
v -7.221338 -0.305002 -0.152501
v -7.221338 0.000001 -0.152501
v -7.221338 -0.305002 -4.007409
v -7.221338 -0.305002 -3.513201
v -7.221338 0.000001 -2.129428
v -7.221339 -0.305002 -5.792439
v -7.221339 0.000001 -5.792440
v -7.221338 0.000001 -4.007409
v -7.221338 0.000001 -3.513201
v -10.494591 -0.305002 -0.152501
v -10.494591 -0.305002 -3.513202
v -10.494591 -0.305002 -3.044852
v -10.494591 0.000002 -3.044852
v -10.494591 0.000002 -3.513202
v -10.494591 0.000002 -0.152501
v -12.169256 -0.305001 -0.152501
v -12.169256 0.000002 -0.152501
vt 0.7654 0.4510
vt 0.8110 0.4373
vt 0.8235 0.4455
vt 0.8072 0.4539
vt 0.4684 0.4475
vt 0.6302 0.4478
vt 0.6651 0.2828
vt 0.4459 0.4429
vt 0.8993 0.4393
vt 0.8985 0.4595
vt 0.8505 0.4612
vt 0.8578 0.4671
vt 0.8007 0.4589
vt 0.8110 0.4515
vt 0.7616 0.4621
vt 0.8072 0.4644
vt 0.8235 0.4579
vt 0.7599 0.4580
vt 0.7635 0.4569
vt 0.8505 0.4701
vt 0.8985 0.4688
vt 0.8993 0.4531
vt 0.8007 0.4683
vt 0.8578 0.4747
vt 0.7635 0.4667
vt 0.7599 0.4676
vt 0.7539 0.4580
vt 0.7549 0.4525
vt 0.7616 0.4510
vt 0.7654 0.4622
vt 0.4459 0.4723
vt 0.4720 0.4722
vt 0.4720 0.4786
vt 0.4459 0.4787
vt 0.7571 0.4623
vt 0.7533 0.4665
vt 0.4293 0.4504
vt 0.4289 0.4244
vt 0.4459 0.4264
vt 0.3976 0.4207
vt 0.4298 0.4223
vt 0.3973 0.4609
vt 0.4289 0.4414
vt 0.3976 0.4385
vt 0.4298 0.4398
vt 0.4293 0.4617
vt 0.3973 0.4494
vt 0.3949 0.4494
vt 0.3958 0.4724
vt 0.4684 0.4322
vt 0.4650 0.4531
vt 0.8327 0.4329
vt 0.6651 0.2413
vt 0.9972 0.0422
vt 0.8998 0.4273
vt 0.6516 0.2768
vt 0.7285 0.3985
vt 0.8327 0.4481
vt 0.8998 0.4436
vt 0.9972 0.0547
vt 0.3958 0.4788
vt 0.3949 0.4609
vt 0.4650 0.4638
vt 0.4790 0.4505
vt 0.4333 0.4248
vt 0.4333 0.4417
vt 0.7307 0.4582
vt 0.7384 0.4581
vt 0.7384 0.4677
vt 0.7307 0.4678
vt 0.4692 0.4656
vt 0.5228 0.4708
vt 0.5065 0.4579
vt 0.4790 0.4618
vt 0.4812 0.4647
vt 0.4898 0.4786
vt 0.5245 0.4785
vt 0.4414 0.4698
vt 0.5402 0.4528
vt 0.6087 0.4578
vt 0.6131 0.4580
vt 0.7229 0.4531
vt 0.5447 0.4590
vt 0.5400 0.4509
vt 0.5705 0.4168
vt 0.6048 0.4002
vt 0.6395 0.4551
vt 0.7269 0.4317
vt 0.5448 0.4638
vt 0.7558 0.4549
vt 0.7514 0.4577
vt 0.7539 0.4676
vt 0.6243 0.3642
vt 0.6207 0.3584
vt 0.5463 0.3944
vt 0.7437 0.4581
vt 0.7437 0.4677
vt 0.7815 0.4485
vt 0.6789 0.4618
vt 0.7352 0.4507
vt 0.7419 0.4647
vt 0.7520 0.4455
vt 0.6077 0.4583
vt 0.5661 0.4606
vt 0.5977 0.4629
vt 0.6395 0.4653
vt 0.7269 0.4471
vt 0.7360 0.4638
vt 0.7440 0.4623
vt 0.5141 0.4441
vt 0.5132 0.4657
vt 0.5130 0.4566
vt 0.5065 0.4455
vt 0.5042 0.4548
vt 0.5141 0.4568
vt 0.5042 0.4416
vt 0.6191 0.3625
vt 0.7514 0.4453
vt 0.7442 0.4550
vt 0.7604 0.4280
vt 0.7558 0.4417
vt 0.7966 0.4304
vt 0.5400 0.4621
vt 0.5447 0.4684
vt 0.5593 0.4784
vt 0.5995 0.4783
vt 0.7373 0.4624
vt 0.7369 0.4440
vt 0.5593 0.4719
vt 0.5995 0.4718
vt 0.5130 0.4666
vt 0.5584 0.4743
vt 0.4815 0.4675
vt 0.4812 0.4543
vt 0.4874 0.4674
vt 0.4653 0.4684
vt 0.5245 0.4721
vt 0.7352 0.4363
vt 0.7387 0.4563
vt 0.7419 0.4267
vt 0.6789 0.4506
vt 0.4898 0.4722
vn -0.0000 -1.0000 0.0000
vn 0.0000 1.0000 -0.0000
vn 0.6034 0.0000 -0.7974
vn -0.7974 0.0000 -0.6034
vn 1.0000 -0.0000 -0.0000
vn 0.0000 0.0000 -1.0000
vn -1.0000 0.0000 0.0000
vn -0.0000 0.0000 1.0000
vn -0.6034 0.0000 0.7974
vn 0.7975 0.0000 0.6034
vn 0.5008 0.0000 0.8656
usemtl ACI_192
s off
f 1/1/1 19/2/1 4/3/1 2/4/1
f 49/5/2 52/6/2 36/7/2 37/8/2
f 4/3/1 20/9/1 5/10/1 13/11/1
f 2/4/1 13/11/1 12/12/1 14/13/1
f 18/14/2 10/15/2 7/16/2 17/17/2
f 12/12/1 3/18/1 16/19/1 14/13/1
f 13/11/1 2/4/1 4/3/1
f 17/17/2 11/20/2 6/21/2 21/22/2
f 7/16/2 9/23/2 8/24/2 11/20/2
f 11/20/2 17/17/2 7/16/2
f 15/25/2 45/26/2 8/24/2 9/23/2
f 3/18/1 57/27/1 53/28/1 1/29/1 16/19/1
f 13/11/3 5/10/3 6/21/3 11/20/3
f 12/12/4 13/11/4 11/20/4 8/24/4
f 3/18/5 12/12/5 8/24/5 45/26/5
f 1/1/5 2/4/5 7/16/5 10/30/5
f 16/19/6 1/1/6 10/30/6 15/25/6
f 14/13/7 16/19/7 15/25/7 9/23/7
f 2/4/8 14/13/8 9/23/8 7/16/8
f 4/3/4 19/2/4 18/14/4 17/17/4
f 20/9/9 4/3/9 17/17/9 21/22/9
f 5/10/4 20/9/4 21/22/4 6/21/4
f 48/31/8 107/32/8 108/33/8 50/34/8
f 10/30/2 55/35/2 56/36/2 45/26/2 15/25/2
f 28/37/1 24/38/1 38/39/1
f 28/37/1 27/40/1 24/38/1
f 29/41/1 24/38/1 27/40/1
f 26/42/2 25/43/2 31/44/2
f 30/45/2 31/44/2 25/43/2
f 26/46/2 37/8/2 25/43/2
f 27/40/4 28/47/4 26/42/4 31/44/4
f 29/41/3 27/40/3 31/44/3 30/45/3
f 24/38/10 29/41/10 30/45/10 25/43/10
f 38/39/3 24/38/3 25/43/3 37/8/3
f 28/37/11 38/39/11 37/8/11 26/46/11
f 32/48/1 28/37/1 42/49/1
f 28/37/1 38/39/1 51/50/1 46/51/1
f 19/52/1 33/53/1 41/54/1 44/55/1
f 33/53/1 19/52/1 47/56/1
f 19/52/1 85/57/1 47/56/1
f 18/58/2 40/59/2 39/60/2 36/7/2
f 35/61/2 26/46/2 43/62/2
f 26/46/2 34/63/2 49/5/2 37/8/2
f 51/50/1 102/64/1 46/51/1
f 33/53/4 38/65/4 37/66/4 36/7/4
f 41/54/9 33/53/9 36/7/9 39/60/9
f 44/55/4 41/54/4 39/60/4 40/59/4
f 42/49/8 48/31/8 50/34/8 35/61/8
f 32/48/4 42/49/4 35/61/4 43/62/4
f 28/37/3 32/48/3 43/62/3 26/46/3
f 19/52/3 44/55/3 40/59/3 18/58/3
f 23/67/5 72/68/5 76/69/5 22/70/5
f 51/50/1 38/39/1 33/53/1 47/56/1
f 34/71/2 26/46/2 35/61/2 50/34/2
f 96/72/2 100/73/2 105/74/2 104/75/2 106/76/2 93/77/2
f 48/78/1 42/49/1 28/37/1 46/51/1
f 52/6/2 18/58/2 36/7/2
f 52/6/2 98/79/2 61/80/2 90/81/2 82/82/2
f 88/83/1 81/84/1 86/85/1 67/86/1 75/87/1 70/88/1 72/68/1 23/67/1 77/89/1
f 10/15/2 18/14/2 82/82/2 58/90/2 55/91/2
f 57/27/5 3/18/5 45/26/5 56/92/5
f 83/93/1 63/94/1 97/95/1 47/56/1 85/57/1
f 65/96/5 57/27/5 56/92/5 60/97/5
f 51/50/1 47/56/1 97/95/1
f 58/98/2 82/82/2 90/81/2 66/99/2 62/100/2 60/101/2 56/36/2 55/35/2
f 66/102/2 90/81/2 84/103/2 80/104/2 74/105/2 73/106/2 71/107/2 76/108/2 60/101/2 62/109/2
f 69/110/1 86/85/1 81/84/1 88/83/1 77/89/1 92/111/1 91/112/1 95/113/1
f 99/114/2 98/79/2 49/5/2 105/74/2 100/73/2
f 72/68/5 65/96/5 60/97/5 76/69/5
f 61/80/2 98/79/2 99/114/2 100/73/2 68/115/2 80/104/2 84/103/2 90/81/2
f 69/110/1 95/113/1 94/116/1 97/95/1 63/94/1 83/93/1 89/117/1 86/85/1
f 53/118/1 57/27/1 65/96/1 59/119/1 64/120/1 83/93/1 85/57/1 54/121/1
f 1/29/1 53/118/1 54/122/1 85/57/1 19/52/1
f 78/123/2 79/124/2 87/125/2 22/126/2 76/108/2 71/127/2 73/128/2 74/105/2 80/104/2
f 77/129/8 23/130/8 22/126/8 87/125/8
f 82/82/2 18/58/2 52/6/2
f 80/104/2 68/115/2 100/73/2 96/131/2 93/77/2 87/125/2 79/132/2 78/123/2
f 94/116/1 95/113/1 102/64/1 51/50/1 97/95/1
f 92/111/1 101/133/1 103/134/1 102/64/1 95/113/1 91/112/1
f 52/6/2 49/5/2 98/79/2
f 34/63/2 108/33/2 106/76/2 104/135/2 105/74/2
f 101/133/1 107/136/1 46/51/1 102/64/1 103/134/1
f 92/137/8 77/129/8 87/125/8 93/77/8
f 49/5/2 34/63/2 105/74/2
f 59/138/1 65/96/1 72/68/1 70/139/1 75/140/1 67/86/1 86/85/1 89/117/1 83/93/1 64/141/1
f 101/142/8 92/137/8 93/77/8 106/76/8
f 34/71/2 50/34/2 108/33/2
f 107/136/1 48/78/1 46/51/1
f 107/32/8 101/142/8 106/76/8 108/33/8
