# Blender v2.78 (sub 0) OBJ File: 'FosterBlockFromPlans.blend'
# www.blender.org
mtllib floor_1_roof.mtl
o floor_1_roof_A-ROOF.001
v -0.152501 3.889047 -0.152501
v -0.152502 3.583790 -20.223604
v -0.152501 3.583790 -0.152501
v -0.152502 3.889047 -20.223604
v -15.341033 4.216649 -0.152501
v -15.341033 4.521906 -0.152501
vt 0.6143 0.4595
vt 0.4265 0.4680
vt 0.8692 0.4550
vt 0.4265 0.4758
vt 0.6143 0.4660
vt 0.8692 0.4622
vn -0.0416 -0.9991 0.0000
vn 0.0416 0.9991 -0.0000
vn 1.0000 -0.0000 -0.0000
vn 0.0000 0.0000 1.0000
vn -0.7974 0.0000 -0.6034
usemtl ACI_132
s off
f 3/1/1 5/2/1 2/3/1
f 6/4/2 1/5/2 4/6/2
f 2/3/3 4/6/3 1/5/3 3/1/3
f 1/5/4 6/4/4 5/2/4 3/1/4
f 6/4/5 4/6/5 2/3/5 5/2/5
