# Blender v2.78 (sub 0) OBJ File: 'FosterBlockFromPlans.blend'
# www.blender.org
mtllib floor_2_roof.mtl
o floor_2_roof_A-ROOF
v -19.663845 7.192999 0.000001
v 0.007651 6.788435 -20.435226
v -19.663845 7.347611 0.000001
v 0.007651 6.633824 -20.435226
v -15.456427 6.788437 0.000001
v -2.667712 7.347608 -22.459763
v -2.667712 7.192997 -22.459763
v -15.456427 6.633826 0.000001
vt 1.3855 0.5367
vt 0.9097 0.5411
vt 1.4261 0.5295
vt 0.8697 0.5275
vt 0.4261 0.5295
vt 0.8697 0.5312
vt 0.3855 0.5399
vt 0.4261 0.5334
vt 0.9097 0.5447
vt 1.3855 0.5399
vt 0.3855 0.5367
vn -0.1311 -0.9864 -0.0992
vn 0.1311 0.9864 0.0992
vn 0.7974 0.0000 0.6034
vn -0.7974 0.0000 -0.6034
vn 0.6034 0.0000 -0.7974
vn 0.0000 0.0000 1.0000
usemtl ACI_132
s off
f 1/1/1 7/2/1 8/3/1
f 4/4/1 8/5/1 7/2/1
f 2/6/2 3/7/2 5/8/2
f 3/7/2 2/6/2 6/9/2
f 4/4/3 2/6/3 5/8/3 8/5/3
f 3/10/4 6/9/4 7/2/4 1/1/4
f 6/9/5 2/6/5 4/4/5 7/2/5
f 8/5/6 5/8/6 3/7/6 1/11/6
