# Blender v2.78 (sub 0) OBJ File: 'FosterBlockFromPlans.blend'
# www.blender.org
mtllib floor_2_backWalls.mtl
o floor_2_backWalls_A-WALL_1.001
v -19.663847 3.583793 0.000001
v -18.400961 7.040498 -0.152500
v -15.456427 3.583792 0.000001
v -0.000000 3.583790 -20.425137
v -2.667713 3.583790 -22.459763
v -19.357191 7.167583 -0.152500
v -2.667712 7.192997 -22.459763
v -1.483171 3.583790 -18.717880
v -15.532270 6.659243 -0.152501
v -15.456427 6.633826 0.000001
v -19.357191 3.583793 -0.152500
v -19.663845 7.192999 0.000001
v -2.202353 6.023818 -21.916374
v -0.205979 6.659240 -20.405642
v -0.000000 6.659240 -20.425137
v -0.651055 6.023817 -20.933702
v -2.110344 3.736292 -22.037994
v -0.205980 3.583790 -20.405642
v -2.110344 6.023818 -22.037994
v -0.743090 3.736292 -20.812084
v -0.743090 6.023817 -20.812084
v -0.651056 3.736291 -20.933702
v -2.202354 3.736292 -21.916374
v -15.532270 3.583792 -0.152501
v -1.502295 3.736292 -21.577871
v -1.380700 6.023817 -21.485836
v -1.502294 6.023818 -21.577871
v -1.472709 6.023818 -21.364243
v -1.594329 6.023818 -21.456251
v -1.594329 3.736292 -21.456251
v -1.472709 3.736292 -21.364243
v -1.380700 3.736292 -21.485836
v -2.637367 7.165783 -22.247137
v -2.637368 3.583790 -22.247137
v -1.606717 3.583790 -21.446537
v -1.444014 6.917166 -21.343309
v -1.380411 6.023817 -21.485630
v -15.466174 6.021255 -5.294329
v -15.466174 6.021255 -5.294329
v -18.611992 7.053206 0.000001
v -19.663845 6.024679 0.000001
v -16.508282 6.773620 0.000001
v -17.560137 6.913413 0.000001
v -2.667712 6.023821 -22.459763
v -2.637367 6.023820 -22.247137
v -2.637368 3.736295 -22.247137
v -2.667713 3.736296 -22.459763
v -2.760362 3.583790 -17.030117
v -4.037552 3.583791 -15.342356
v -5.314743 3.583791 -13.654593
v -6.591934 3.583791 -11.966831
v -7.869125 3.583791 -10.279070
v -9.146316 3.583791 -8.591308
v -10.423507 3.583791 -6.903546
v -11.700698 3.583792 -5.215785
v -12.977888 3.583792 -3.528023
v -14.255080 3.583792 -1.840262
v -1.483170 6.659241 -18.717880
v -2.760361 6.659241 -17.030117
v -4.037552 6.659241 -15.342356
v -5.314743 6.659241 -13.654593
v -6.591934 6.659241 -11.966831
v -7.869124 6.659242 -10.279070
v -9.146315 6.659242 -8.591308
v -10.423506 6.659242 -6.903546
v -11.700697 6.659242 -5.215785
v -12.977887 6.659242 -3.528023
v -14.255080 6.659243 -1.840262
v -14.168392 3.583792 -1.702094
v -12.880357 3.583792 -3.404189
v -11.592320 3.583792 -5.106284
v -10.304285 3.583791 -6.808379
v -9.016249 3.583791 -8.510474
v -7.728213 3.583791 -10.212568
v -6.440177 3.583791 -11.914663
v -5.152142 3.583791 -13.616758
v -3.864107 3.583791 -15.318852
v -2.576071 3.583790 -17.020947
v -1.288036 3.583790 -18.723040
v -14.168392 6.635944 -1.702094
v -12.880356 6.638062 -3.404189
v -11.592319 6.640179 -5.106284
v -10.304284 6.642297 -6.808379
v -9.016248 6.644415 -8.510474
v -7.728213 6.646533 -10.212568
v -6.440178 6.648650 -11.914663
v -5.152143 6.650768 -13.616758
v -3.864107 6.652886 -15.318852
v -2.576071 6.655004 -17.020948
v -1.288036 6.657122 -18.723043
v -1.385078 6.936369 -21.481539
v -1.506250 6.960611 -21.573931
v -0.657865 3.583790 -20.926880
v -1.385057 3.583790 -21.481499
v -1.506235 3.583790 -21.573919
v -2.112234 3.583790 -22.036106
v -0.810115 3.583790 -20.854578
v -1.414670 3.583790 -21.303825
v -1.672979 3.583790 -21.498009
v -2.142121 3.583790 -21.862432
v -1.616400 6.953080 -21.473873
v -17.444731 6.913413 -0.152500
v -16.488501 6.786329 -0.152501
v -16.488503 3.583792 -0.152501
v -17.444731 3.583793 -0.152501
v -18.400961 3.583793 -0.152500
v -16.508282 3.583792 0.000001
v -17.560137 3.583793 0.000001
v -18.611994 3.583793 0.000001
v -0.746307 3.583790 -20.807161
v -1.482544 3.583790 -21.354263
v -2.206421 3.583790 -21.912380
vt 0.4261 0.6008
vt 0.4244 0.6022
vt 0.4150 0.6012
vt 0.4160 0.5998
vt 0.4488 0.5462
vt 0.4350 0.5375
vt 0.4350 0.6370
vt 0.4488 0.6542
vt 0.2959 0.3931
vt 0.3945 0.5241
vt 0.3894 0.5745
vt 0.3981 0.5814
vt 0.2891 0.3923
vt 0.3854 0.5230
vt 1.3866 0.5241
vt 1.0399 0.3931
vt 0.0964 0.1315
vt 0.0000 0.0000
vt 0.8323 0.5967
vt 0.8692 0.5962
vt 0.6082 0.8444
vt 0.5983 0.8373
vt 0.7547 0.5295
vt 0.7585 0.5977
vt 0.7216 0.5982
vt 0.7183 0.5293
vt 0.8641 0.5302
vt 0.8277 0.5300
vt 0.7954 0.5972
vt 0.7912 0.5297
vt 0.4491 0.5507
vt 0.4504 0.5519
vt 0.8815 0.5918
vt 0.8903 0.5820
vt 0.8903 0.6013
vt 0.8715 0.5951
vt 0.8792 0.5826
vt 0.8903 0.5829
vt 0.8794 0.5817
vt 0.4265 0.5274
vt 0.4346 0.5371
vt 0.4359 0.5383
vt 0.4630 0.5276
vt 0.3957 0.5977
vt 0.3963 0.5991
vt 0.3870 0.5981
vt 0.3855 0.5967
vt 0.4634 0.6018
vt 0.4265 0.6023
vt 0.6847 0.5987
vt 0.6818 0.5290
vt 0.4995 0.5279
vt 0.4372 0.5396
vt 0.4385 0.5408
vt 0.5359 0.5281
vt 0.6479 0.5992
vt 0.6453 0.5288
vt 0.8921 0.5477
vt 0.8921 0.5831
vt 0.8921 0.5822
vt 0.8921 0.5472
vt 0.0000 0.0000
vt 0.8792 0.5293
vt 0.8794 0.5290
vt 0.8887 0.5291
vt 0.5372 0.6007
vt 0.5003 0.6013
vt 0.8923 0.5829
vt 0.9013 0.5831
vt 0.9013 0.5822
vt 0.8922 0.5820
vt 0.8921 0.5292
vt 0.8903 0.5821
vt 0.8903 0.5291
vt 0.8940 0.5291
vt 0.9013 0.5292
vt 0.0000 0.0000
vt 0.8756 0.5976
vt 0.8920 0.6027
vt 0.9079 0.6082
vt 0.8789 0.5986
vt 0.8712 0.5255
vt 0.8712 0.5961
vt 0.8903 0.6021
vt 0.8758 0.5974
vt 0.8751 0.5974
vt 0.8749 0.5291
vt 0.6110 0.5997
vt 0.6089 0.5286
vt 0.5741 0.6002
vt 0.5724 0.5283
vt 0.0000 0.0000
vt 0.9078 0.6070
vt 0.9002 0.6045
vt 0.8813 0.5754
vt 0.8861 0.5287
vt 0.8864 0.5256
vt 0.8902 0.5830
vt 0.4398 0.5420
vt 0.4412 0.5433
vt 0.4425 0.5445
vt 0.4438 0.5457
vt 0.4451 0.5470
vt 0.4464 0.5482
vt 0.4478 0.5495
vt 0.4989 0.7662
vt 0.4890 0.7591
vt 0.5088 0.7733
vt 0.5188 0.7804
vt 0.5287 0.7875
vt 0.5387 0.7947
vt 0.5486 0.8018
vt 0.5585 0.8089
vt 0.5685 0.8160
vt 0.5784 0.8231
vt 0.5883 0.8302
vt 0.6012 0.6421
vt 0.5873 0.6334
vt 0.5873 0.8257
vt 0.6012 0.8428
vt 0.5735 0.6247
vt 0.5735 0.8085
vt 0.5596 0.6159
vt 0.5596 0.7914
vt 0.5458 0.6072
vt 0.5458 0.7742
vt 0.5319 0.5985
vt 0.5319 0.7571
vt 0.5181 0.5898
vt 0.5181 0.7399
vt 0.5042 0.5811
vt 0.5042 0.7228
vt 0.4904 0.5724
vt 0.4904 0.7056
vt 0.4765 0.5636
vt 0.4765 0.6885
vt 0.4627 0.5549
vt 0.4627 0.6713
vt 0.9079 0.5258
vt 0.9079 0.5292
vt 0.9078 0.5807
vt 0.8920 0.6018
vt 0.8869 0.5279
vt 0.8889 0.5277
vt 0.8988 0.5267
vt 0.9003 0.5257
vt 0.8837 0.5256
vt 0.5351 0.3228
vt 0.8902 0.5831
vt 0.8867 0.5284
vt 0.8833 0.5256
vt 0.8803 0.5256
vt 0.8799 0.5256
vt 0.8749 0.5255
vt 0.8787 0.5256
vt 0.8791 0.5256
vt 0.8904 0.5255
vt 0.8805 0.5254
vt 0.8745 0.5255
vt 0.8715 0.5252
vt 0.8714 0.5955
vt 0.8804 0.5987
vt 0.4057 0.6002
vt 0.4058 0.5987
vt 0.3855 0.5728
vt 0.3854 0.5261
vt 0.2891 0.3946
vt 0.1927 0.2631
vt 0.0964 0.1308
vt 0.3466 0.1310
vt 0.0000 0.0000
vt 0.1927 0.2615
vt 0.6933 0.2620
vt 0.0986 0.1310
vt 0.4156 0.5953
vt 0.1972 0.2621
vt 0.4069 0.5883
vt 0.8921 0.5255
vt 0.3882 0.2323
vt 0.1194 0.0720
vt 0.4954 0.2989
vn 0.1311 0.9864 0.0992
vn -0.7974 0.0000 -0.6034
vn -0.0000 0.0000 -1.0000
vn 0.0000 -1.0000 0.0000
vn 0.0000 0.0000 1.0000
vn 0.0056 1.0000 0.0049
vn 0.7974 0.0000 0.6034
vn 0.6062 0.0102 -0.7952
vn 0.0000 1.0000 -0.0000
vn 0.6035 -0.0000 -0.7974
vn 0.7967 -0.0001 0.6043
vn 0.7975 -0.0000 0.6033
vn 0.0987 0.9860 0.1347
vn -0.6034 0.0000 0.7974
vn 0.0765 0.9834 0.1646
vn 0.6156 -0.0000 -0.7881
vn 0.6052 -0.0625 -0.7936
vn 0.6057 0.0036 -0.7957
vn -0.6053 0.0000 0.7960
vn -0.6035 0.0007 0.7973
vn 0.1253 0.9875 0.0954
vn 0.1147 0.9896 0.0874
vn 0.1039 0.9914 0.0793
vn 0.0932 0.9931 0.0711
vn 0.0823 0.9946 0.0629
vn 0.0715 0.9959 0.0547
vn 0.0605 0.9971 0.0464
vn 0.0496 0.9980 0.0382
vn 0.0386 0.9988 0.0298
vn 0.0276 0.9994 0.0215
vn 0.0166 0.9998 0.0132
vn 0.6034 -0.0000 -0.7974
vn 0.6053 0.0063 -0.7960
vn 0.6041 -0.0512 -0.7952
vn 0.6045 -0.0381 -0.7957
vn 0.6047 -0.0268 -0.7960
vn 0.6063 -0.0174 -0.7950
vn -0.5960 0.0385 0.8021
vn -0.6033 0.0000 0.7975
vn -0.6070 0.0683 0.7917
vn -0.6130 0.0370 0.7892
vn 0.0479 0.9787 0.1996
vn -0.6036 0.0005 0.7973
vn 0.5824 -0.0019 -0.8129
vn -0.6036 0.0009 0.7973
vn -0.5972 0.0949 0.7965
vn -0.5987 0.0646 0.7984
usemtl ACI_113
s off
f 10/1/1 9/2/1 103/3/1 42/4/1
f 57/5/2 24/6/2 9/7/2 68/8/2
f 106/9/3 11/10/3 6/11/3 2/12/3
f 109/13/4 1/14/4 11/15/4 106/16/4
f 42/4/5 107/17/5 3/18/5 10/1/5
f 90/19/6 15/20/6 14/21/6 58/22/6
f 77/23/7 88/24/7 87/25/7 76/26/7
f 4/27/7 15/20/7 90/19/7 79/28/7
f 79/28/7 90/19/7 89/29/7 78/30/7
f 79/28/4 8/31/4 18/32/4 4/27/4
f 78/30/7 89/29/7 88/24/7 77/23/7
f 16/33/8 37/34/8 91/35/8 15/36/8
f 21/37/4 28/38/4 37/34/4 16/39/4
f 3/40/4 24/41/4 57/42/4 69/43/4
f 40/44/1 2/45/1 6/46/1 12/47/1
f 69/43/7 80/48/7 10/49/7 3/40/7
f 76/26/7 87/25/7 86/50/7 75/51/7
f 70/52/4 56/53/4 55/54/4 71/55/4
f 69/43/4 57/42/4 56/53/4 70/52/4
f 75/51/7 86/50/7 85/56/7 74/57/7
f 30/58/2 29/59/2 27/60/2 25/61/2
f 31/62/9 20/63/9 22/64/9 32/65/9
f 71/55/7 82/66/7 81/67/7 70/52/7
f 29/68/4 13/69/4 19/70/4 27/71/4
f 25/72/10 27/60/10 26/73/10 32/74/10
f 25/75/9 17/76/9 23/77/9 30/58/9
f 32/65/11 37/34/11 28/38/11 31/62/11
f 21/37/2 16/39/2 22/64/2 20/63/2
f 19/70/12 13/69/12 23/77/12 17/76/12
f 101/78/13 92/79/13 7/80/13 33/81/13
f 21/37/14 20/63/14 18/82/14 14/83/14
f 91/84/15 92/79/15 101/85/15 36/86/15
f 15/20/16 4/27/16 22/64/16 16/33/16
f 4/27/17 93/87/17 22/64/17
f 74/57/7 85/56/7 84/88/7 73/89/7
f 73/89/7 84/88/7 83/90/7 72/91/7
f 70/52/7 81/67/7 80/48/7 69/43/7
f 27/92/18 19/70/18 7/93/18 92/94/18
f 33/81/19 45/95/19 46/96/19 34/97/19 23/77/19 13/69/19
f 36/86/20 101/78/20 29/59/20 28/98/20
f 72/91/7 83/90/7 82/66/7 71/55/7
f 71/55/4 55/54/4 54/99/4 72/91/4
f 72/91/4 54/99/4 53/100/4 73/89/4
f 73/89/4 53/100/4 52/101/4 74/57/4
f 74/57/4 52/101/4 51/102/4 75/51/4
f 75/51/4 51/102/4 50/103/4 76/26/4
f 76/26/4 50/103/4 49/104/4 77/23/4
f 77/23/4 49/104/4 48/105/4 78/30/4
f 78/30/4 48/105/4 8/31/4 79/28/4
f 10/49/21 80/48/21 68/106/21 9/107/21
f 80/48/22 81/67/22 67/108/22 68/106/22
f 81/67/23 82/66/23 66/109/23 67/108/23
f 82/66/24 83/90/24 65/110/24 66/109/24
f 83/90/25 84/88/25 64/111/25 65/110/25
f 84/88/26 85/56/26 63/112/26 64/111/26
f 85/56/27 86/50/27 62/113/27 63/112/27
f 86/50/28 87/25/28 61/114/28 62/113/28
f 87/25/29 88/24/29 60/115/29 61/114/29
f 88/24/30 89/29/30 59/116/30 60/115/30
f 89/29/31 90/19/31 58/22/31 59/116/31
f 18/117/2 8/118/2 58/119/2 14/120/2
f 8/118/2 48/121/2 59/122/2 58/119/2
f 48/121/2 49/123/2 60/124/2 59/122/2
f 49/123/2 50/125/2 61/126/2 60/124/2
f 50/125/2 51/127/2 62/128/2 61/126/2
f 51/127/2 52/129/2 63/130/2 62/128/2
f 52/129/2 53/131/2 64/132/2 63/130/2
f 53/131/2 54/133/2 65/134/2 64/132/2
f 54/133/2 55/135/2 66/136/2 65/134/2
f 55/135/2 56/137/2 67/138/2 66/136/2
f 56/137/2 57/5/2 68/8/2 67/138/2
f 5/139/32 47/140/32 44/141/32 7/93/32 19/70/32 17/76/32
f 92/142/33 91/35/33 37/34/33 27/92/33
f 93/87/34 94/143/34 32/65/34 22/64/34
f 94/143/35 95/144/35 25/75/35 32/65/35
f 95/144/36 96/145/36 17/76/36 25/75/36
f 96/145/37 5/139/37 17/76/37
f 5/139/4 96/146/4 112/147/4 34/97/4
f 110/148/38 18/82/38 20/63/38
f 28/149/39 29/59/39 30/58/39 31/150/39
f 112/147/40 100/151/40 99/152/40 35/153/40 30/58/40 23/77/40
f 97/154/4 98/155/4 111/156/4 94/157/4 93/158/4 110/159/4
f 4/160/4 18/82/4 110/159/4 93/158/4
f 34/97/41 112/147/41 23/77/41
f 15/161/42 91/162/42 36/86/42 14/83/42
f 14/83/43 36/86/43 28/98/43 21/37/43
f 27/92/44 37/34/44 32/65/44 26/73/44
f 29/59/45 101/78/45 33/81/45 13/69/45
f 42/4/1 103/3/1 102/163/1 43/164/1
f 43/164/1 102/163/1 2/45/1 40/44/1
f 12/47/5 41/165/5 1/166/5 109/167/5 40/44/5
f 40/44/5 109/167/5 108/168/5 43/164/5
f 43/164/5 108/168/5 107/17/5 42/4/5
f 3/18/4 107/169/4 104/170/4 24/171/4
f 107/169/4 108/172/4 105/173/4 104/170/4
f 108/172/4 109/13/4 106/16/4 105/173/4
f 24/171/3 104/174/3 103/175/3 9/2/3
f 104/174/3 105/176/3 102/177/3 103/175/3
f 105/176/3 106/9/3 2/12/3 102/177/3
f 94/157/4 111/156/4 35/153/4 95/178/4
f 31/62/46 30/58/46 35/153/46 111/179/46
f 20/63/47 31/62/47 111/179/47 98/180/47 97/181/47 110/148/47
f 99/152/4 100/151/4 112/147/4 96/146/4 95/178/4 35/153/4
