# Blender v2.78 (sub 0) OBJ File: 'FosterBlockFromPlans.blend'
# www.blender.org
mtllib floor_2_officeWalls.mtl
o floor_2_officeWalls_I-WALL.002
v -15.909204 7.167582 -4.708896
v -13.415727 3.583792 -2.949459
v -15.847848 5.617148 -4.789950
v -14.987027 3.583792 -4.011023
v -13.477057 3.583792 -2.868404
v -13.477056 6.659243 -2.868404
v -15.847848 7.167582 -4.789950
v -13.415726 6.659243 -2.949459
v -15.909204 5.617148 -4.708896
v -14.987026 5.617148 -4.011023
v -14.925670 5.617148 -4.092103
v -14.925671 3.583792 -4.092103
v -11.820635 3.583792 -5.057312
v -13.360977 6.981199 -6.222958
v -11.820634 6.659242 -5.057312
v -11.759277 6.659242 -5.138391
v -11.759278 3.583792 -5.138391
v -13.299621 3.583792 -6.304038
v -13.299620 6.981199 -6.304038
v -13.360978 3.583792 -6.222958
v -11.704530 6.981199 -8.411890
v -10.164186 6.659242 -7.246244
v -11.643199 3.583792 -8.492970
v -10.102830 3.583791 -7.327325
v -11.704531 3.583792 -8.411890
v -10.102829 6.659242 -7.327325
v -10.164186 3.583791 -7.246244
v -11.643198 6.981199 -8.492970
v -8.446383 3.583791 -9.516257
v -10.027291 3.583791 -10.712558
v -10.088622 3.583791 -10.631503
v -8.507739 3.583791 -9.435178
v -10.027290 6.989662 -10.712558
v -10.088621 6.989662 -10.631503
v -8.507738 6.659242 -9.435178
v -8.446382 6.659242 -9.516257
v -19.038033 3.583793 -0.574245
v -18.480715 3.583793 -0.152500
v -18.480713 7.167583 -0.152500
v -19.099388 3.583793 -0.493189
v -18.649204 3.583793 -0.152500
v -18.649202 7.167583 -0.152500
v -19.038031 7.167583 -0.574245
v -19.099386 7.167583 -0.493189
vt 0.3786 0.5748
vt 0.3989 0.5753
vt 0.3786 0.6237
vt 0.3989 0.5054
vt 0.4316 0.5052
vt 0.4316 0.6065
vt 0.3989 0.5054
vt 0.3989 0.5761
vt 0.4319 0.6076
vt 0.4319 0.5053
vt 0.3784 0.6250
vt 0.3784 0.5757
vt 0.4458 0.5073
vt 0.4458 0.6442
vt 0.3988 0.6629
vt 0.3988 0.5077
vt 0.3988 0.5078
vt 0.3988 0.6651
vt 0.4466 0.6461
vt 0.4466 0.5074
vt 0.4783 0.5118
vt 0.4783 0.7124
vt 0.4002 0.7489
vt 0.4002 0.5136
vt 0.4003 0.5140
vt 0.4003 0.7535
vt 0.4803 0.7158
vt 0.4803 0.5121
vt 0.5845 0.5223
vt 0.5845 0.8116
vt 0.4013 0.9271
vt 0.4013 0.5579
vt 0.4019 0.5658
vt 0.4019 0.9358
vt 0.5915 0.8141
vt 0.5915 0.5227
vt 0.3916 0.5810
vt 0.3853 0.5809
vt 0.3853 0.5034
vt 0.3916 0.5034
vt 0.3853 0.5034
vt 0.3853 0.5814
vt 0.3930 0.5816
vt 0.3930 0.5034
vn -0.6034 0.0000 0.7974
vn 0.6034 0.0000 -0.7974
vn -0.0000 -1.0000 0.0000
vn -0.7973 0.0000 -0.6036
vn 0.7974 -0.0000 0.6034
vn 0.1311 0.9864 0.0992
vn -0.7974 0.0000 -0.6034
vn -0.7975 0.0000 -0.6033
vn -0.6035 0.0000 0.7974
vn 0.0000 1.0000 0.0000
vn -0.7973 0.0000 -0.6035
vn 0.0000 -0.0000 1.0000
usemtl ACI_2
s off
f 9/1/1 10/2/1 1/3/1
f 4/4/1 5/5/1 6/6/1 10/2/1
f 1/3/1 10/2/1 6/6/1
f 12/7/2 11/8/2 8/9/2 2/10/2
f 7/11/2 8/9/2 11/8/2
f 11/8/2 3/12/2 7/11/2
f 2/10/3 5/5/3 4/4/3 12/7/3
f 3/12/4 9/1/4 1/3/4 7/11/4
f 6/6/5 5/5/5 2/10/5 8/9/5
f 7/11/6 6/6/6 8/9/6
f 6/6/6 7/11/6 1/3/6
f 9/1/3 3/12/3 11/8/3 10/2/3
f 4/4/7 10/2/7 11/8/7 12/7/7
f 13/13/1 15/14/1 14/15/1 20/16/1
f 18/17/2 19/18/2 16/19/2 17/20/2
f 18/17/3 17/20/3 13/13/3 20/16/3
f 18/17/7 20/16/7 14/15/7 19/18/7
f 15/14/5 13/13/5 17/20/5 16/19/5
f 14/15/6 15/14/6 16/19/6 19/18/6
f 27/21/1 22/22/1 21/23/1 25/24/1
f 23/25/2 28/26/2 26/27/2 24/28/2
f 23/25/3 24/28/3 27/21/3 25/24/3
f 23/25/8 25/24/8 21/23/8 28/26/8
f 22/22/5 27/21/5 24/28/5 26/27/5
f 28/26/6 22/22/6 26/27/6
f 22/22/6 28/26/6 21/23/6
f 32/29/1 35/30/1 34/31/1 31/32/1
f 30/33/2 33/34/2 36/35/2 29/36/2
f 30/33/3 29/36/3 32/29/3 31/32/3
f 30/33/7 31/32/7 34/31/7 33/34/7
f 35/30/5 32/29/5 29/36/5 36/35/5
f 34/31/6 35/30/6 36/35/6 33/34/6
f 42/37/9 44/38/9 40/39/9 41/40/9
f 37/41/2 43/42/2 39/43/2 38/44/2
f 38/44/3 41/40/3 40/39/3 37/41/3
f 44/38/10 42/37/10 39/43/10 43/42/10
f 37/41/11 40/39/11 44/38/11 43/42/11
f 42/37/12 41/40/12 38/44/12 39/43/12
